<svg width="94" height="94" viewBox="0 0 94 94" fill="none" xmlns="http://www.w3.org/2000/svg">
<mask id="mask0_82_233" style="mask-type:alpha" maskUnits="userSpaceOnUse" x="0" y="0" width="94" height="94">
<rect width="94" height="94" fill="#D9D9D9"/>
</mask>
<g mask="url(#mask0_82_233)">
<path d="M43.2793 51.5042L39.8522 67.3667C39.787 67.8236 39.6238 68.2479 39.3627 68.6396C39.1016 69.0312 38.8078 69.3576 38.4814 69.6187C38.155 69.8799 37.7797 70.092 37.3554 70.2552C36.9311 70.4184 36.4578 70.5 35.9356 70.5C34.63 70.5 33.5693 70.0104 32.7533 69.0312C31.9373 68.0521 31.6599 66.9097 31.921 65.6042L38.3835 34.8583L31.3335 37.6V43.0833C31.3335 44.1931 30.9581 45.1233 30.2075 45.874C29.4568 46.6247 28.5266 47 27.4168 47C26.3071 47 25.3769 46.6247 24.6262 45.874C23.8755 45.1233 23.5002 44.1931 23.5002 43.0833V32.5083L43.2793 24.1854C44.1932 23.7938 45.1561 23.549 46.1679 23.451C47.1797 23.3531 48.1425 23.4674 49.0564 23.7938C49.9703 24.1201 50.8352 24.5771 51.6512 25.1646C52.4672 25.7521 53.1363 26.5028 53.6585 27.4167L57.5752 33.6833C59.0766 36.0986 60.937 38.0733 63.1564 39.6073C65.3759 41.1413 67.8564 42.1694 70.5981 42.6917C71.7078 42.8875 72.6217 43.3771 73.3397 44.1604C74.0578 44.9438 74.4168 45.8903 74.4168 47C74.4168 48.1097 74.0252 49.0236 73.2418 49.7417C72.4585 50.4597 71.512 50.7535 70.4022 50.6229C66.7467 50.1007 63.4502 48.991 60.5127 47.2937C57.5752 45.5965 55.0293 43.5403 52.8752 41.125L50.5252 47L58.7502 54.8333V66.5833C58.7502 67.6931 58.3748 68.6233 57.6241 69.374C56.8734 70.1246 55.9432 70.5 54.8335 70.5C53.7238 70.5 52.7936 70.1246 52.0429 69.374C51.2922 68.6233 50.9168 67.6931 50.9168 66.5833V58.5542L43.2793 51.5042ZM52.8752 21.5417C50.721 21.5417 48.8769 20.7747 47.3429 19.2406C45.8088 17.7066 45.0418 15.8625 45.0418 13.7083C45.0418 11.5542 45.8088 9.71007 47.3429 8.17604C48.8769 6.64201 50.721 5.875 52.8752 5.875C55.0293 5.875 56.8734 6.64201 58.4075 8.17604C59.9415 9.71007 60.7085 11.5542 60.7085 13.7083C60.7085 15.8625 59.9415 17.7066 58.4075 19.2406C56.8734 20.7747 55.0293 21.5417 52.8752 21.5417ZM47.0002 86.1667C41.5821 86.1667 36.4904 85.1385 31.7252 83.0823C26.9599 81.026 22.8147 78.2354 19.2897 74.7104C15.7647 71.1854 12.9741 67.0403 10.9179 62.275C8.86162 57.5097 7.8335 52.4181 7.8335 47C7.8335 39.95 9.5144 33.5365 12.8762 27.7594C16.238 21.9823 20.6932 17.3313 26.2418 13.8063C27.1557 13.284 28.1022 13.1698 29.0814 13.4635C30.0606 13.7573 30.8113 14.3937 31.3335 15.3729C31.8557 16.2868 31.97 17.266 31.6762 18.3104C31.3825 19.3549 30.7786 20.1708 29.8647 20.7583C25.5564 23.5653 22.113 27.2535 19.5345 31.8229C16.9561 36.3924 15.6668 41.4514 15.6668 47C15.6668 55.7472 18.7022 63.1563 24.7731 69.2271C30.8439 75.2979 38.2529 78.3333 47.0002 78.3333C55.1599 78.3333 62.1609 75.6896 68.0033 70.4021C73.8457 65.1146 77.2238 58.5215 78.1377 50.6229C78.2682 49.5785 78.7252 48.7135 79.5085 48.0281C80.2918 47.3427 81.2057 47 82.2502 47C83.3599 47 84.2901 47.359 85.0408 48.0771C85.7915 48.7951 86.1016 49.709 85.971 50.8187C84.9918 60.8062 80.8304 69.1944 73.4866 75.9833C66.1429 82.7722 57.3141 86.1667 47.0002 86.1667Z" fill="white"/>
</g>
</svg>
