<svg width="94" height="94" viewBox="0 0 94 94" fill="none" xmlns="http://www.w3.org/2000/svg">
<mask id="mask0_82_269" style="mask-type:alpha" maskUnits="userSpaceOnUse" x="0" y="0" width="94" height="94">
<rect width="94" height="94" fill="#D9D9D9"/>
</mask>
<g mask="url(#mask0_82_269)">
<path d="M47.0002 82.25C45.8252 82.25 44.6991 82.0378 43.622 81.6135C42.545 81.1892 41.5821 80.5528 40.7335 79.7042L14.4918 53.3646C12.2071 51.0799 10.5262 48.4688 9.44912 45.5313C8.37204 42.5938 7.8335 39.5257 7.8335 36.3271C7.8335 29.6035 10.0203 23.8264 14.3939 18.9958C18.7675 14.1653 24.2182 11.75 30.746 11.75C33.8793 11.75 36.8332 12.3701 39.6075 13.6104C42.3818 14.8507 44.846 16.5806 47.0002 18.8C49.0891 16.5806 51.5207 14.8507 54.295 13.6104C57.0693 12.3701 60.0231 11.75 63.1564 11.75C69.6842 11.75 75.1512 14.1653 79.5575 18.9958C83.9637 23.8264 86.1668 29.5708 86.1668 36.2292C86.1668 39.4278 85.612 42.4958 84.5023 45.4333C83.3925 48.3708 81.7279 50.9819 79.5085 53.2667L53.1689 79.7042C52.3203 80.5528 51.3738 81.1892 50.3293 81.6135C49.2849 82.0378 48.1752 82.25 47.0002 82.25ZM50.9168 31.3333C51.5696 31.3333 52.1897 31.4965 52.7772 31.8229C53.3647 32.1493 53.8217 32.5736 54.1481 33.0958L60.8064 43.0833H77.0606C77.5175 41.9736 77.8602 40.8476 78.0887 39.7052C78.3172 38.5628 78.4314 37.4042 78.4314 36.2292C78.3009 31.725 76.7995 27.8573 73.9272 24.626C71.055 21.3948 67.4647 19.7792 63.1564 19.7792C61.1328 19.7792 59.1908 20.1708 57.3304 20.9542C55.47 21.7375 53.8543 22.8799 52.4835 24.3813L49.8397 27.2208C49.5134 27.6125 49.0891 27.9226 48.5668 28.151C48.0446 28.3795 47.5224 28.4938 47.0002 28.4938C46.4779 28.4938 45.9557 28.3795 45.4335 28.151C44.9113 27.9226 44.4543 27.6125 44.0627 27.2208L41.4189 24.3813C40.0481 22.8799 38.4488 21.7049 36.621 20.8563C34.7932 20.0076 32.8349 19.5833 30.746 19.5833C26.4377 19.5833 22.8474 21.2316 19.9752 24.5281C17.1029 27.8247 15.6668 31.725 15.6668 36.2292C15.6668 37.4042 15.7647 38.5628 15.9606 39.7052C16.1564 40.8476 16.4828 41.9736 16.9397 43.0833H35.2502C35.9029 43.0833 36.5231 43.2465 37.1106 43.5729C37.6981 43.8993 38.155 44.3236 38.4814 44.8458L41.9085 49.9375L47.196 34.075C47.4571 33.2917 47.9304 32.6389 48.6158 32.1167C49.3012 31.5944 50.0682 31.3333 50.9168 31.3333ZM52.0918 44.0625L46.8043 59.925C46.5432 60.7083 46.0536 61.3611 45.3356 61.8833C44.6175 62.4056 43.8342 62.6667 42.9856 62.6667C42.3328 62.6667 41.7127 62.5035 41.1252 62.1771C40.5377 61.8507 40.0807 61.4264 39.7543 60.9042L33.096 50.9167H23.1085L46.3147 74.1229C46.4453 74.2535 46.5595 74.3351 46.6575 74.3677C46.7554 74.4003 46.8696 74.4167 47.0002 74.4167C47.1307 74.4167 47.245 74.4003 47.3429 74.3677C47.4408 74.3351 47.555 74.2535 47.6856 74.1229L70.7939 50.9167H58.7502C58.0974 50.9167 57.4772 50.7535 56.8897 50.4271C56.3022 50.1007 55.8127 49.6764 55.421 49.1542L52.0918 44.0625Z" fill="white"/>
</g>
</svg>
