<svg width="94" height="94" viewBox="0 0 94 94" fill="none" xmlns="http://www.w3.org/2000/svg">
<mask id="mask0_82_257" style="mask-type:alpha" maskUnits="userSpaceOnUse" x="0" y="0" width="94" height="94">
<rect width="94" height="94" fill="#D9D9D9"/>
</mask>
<g mask="url(#mask0_82_257)">
<path d="M47 47C50.2639 47 53.0382 45.8576 55.3229 43.5729C57.6076 41.2882 58.75 38.5139 58.75 35.25C58.75 31.9861 57.6076 29.2118 55.3229 26.9271C53.0382 24.6424 50.2639 23.5 47 23.5C43.7361 23.5 40.9618 24.6424 38.6771 26.9271C36.3924 29.2118 35.25 31.9861 35.25 35.25C35.25 38.5139 36.3924 41.2882 38.6771 43.5729C40.9618 45.8576 43.7361 47 47 47ZM41.125 37.2083C40.6028 37.2083 40.1458 37.0125 39.7542 36.6208C39.3625 36.2292 39.1667 35.7722 39.1667 35.25C39.1667 34.7278 39.3625 34.2708 39.7542 33.8792C40.1458 33.4875 40.6028 33.2917 41.125 33.2917C41.6472 33.2917 42.1042 33.4875 42.4958 33.8792C42.8875 34.2708 43.0833 34.7278 43.0833 35.25C43.0833 35.7722 42.8875 36.2292 42.4958 36.6208C42.1042 37.0125 41.6472 37.2083 41.125 37.2083ZM47 37.2083C46.4778 37.2083 46.0208 37.0125 45.6292 36.6208C45.2375 36.2292 45.0417 35.7722 45.0417 35.25C45.0417 34.7278 45.2375 34.2708 45.6292 33.8792C46.0208 33.4875 46.4778 33.2917 47 33.2917C47.5222 33.2917 47.9792 33.4875 48.3708 33.8792C48.7625 34.2708 48.9583 34.7278 48.9583 35.25C48.9583 35.7722 48.7625 36.2292 48.3708 36.6208C47.9792 37.0125 47.5222 37.2083 47 37.2083ZM52.875 37.2083C52.3528 37.2083 51.8958 37.0125 51.5042 36.6208C51.1125 36.2292 50.9167 35.7722 50.9167 35.25C50.9167 34.7278 51.1125 34.2708 51.5042 33.8792C51.8958 33.4875 52.3528 33.2917 52.875 33.2917C53.3972 33.2917 53.8542 33.4875 54.2458 33.8792C54.6375 34.2708 54.8333 34.7278 54.8333 35.25C54.8333 35.7722 54.6375 36.2292 54.2458 36.6208C53.8542 37.0125 53.3972 37.2083 52.875 37.2083ZM19.5833 82.25C17.4292 82.25 15.5851 81.483 14.051 79.949C12.517 78.4149 11.75 76.5708 11.75 74.4167V19.5833C11.75 17.4292 12.517 15.5851 14.051 14.051C15.5851 12.517 17.4292 11.75 19.5833 11.75H74.4167C76.5708 11.75 78.4149 12.517 79.949 14.051C81.483 15.5851 82.25 17.4292 82.25 19.5833V74.4167C82.25 76.5708 81.483 78.4149 79.949 79.949C78.4149 81.483 76.5708 82.25 74.4167 82.25H19.5833ZM19.5833 74.4167H74.4167V19.5833H19.5833V74.4167Z" fill="white"/>
</g>
</svg>
