<svg width="94" height="94" viewBox="0 0 94 94" fill="none" xmlns="http://www.w3.org/2000/svg">
<mask id="mask0_77_227" style="mask-type:alpha" maskUnits="userSpaceOnUse" x="0" y="0" width="94" height="94">
<rect width="94" height="94" fill="#D9D9D9"/>
</mask>
<g mask="url(#mask0_77_227)">
<path d="M46.9997 82.2501C39.3622 82.2501 32.8834 79.5901 27.5632 74.2699C22.2431 68.9498 19.583 62.471 19.583 54.8335C19.583 48.6974 21.3945 43.1977 25.0174 38.3345C28.6403 33.4713 33.3893 30.1911 39.2643 28.4939C37.9587 28.1675 36.6858 27.6942 35.4455 27.0741C34.2052 26.454 33.0955 25.6543 32.1163 24.6751C29.9622 22.521 28.575 19.9588 27.9549 16.9887C27.3347 14.0185 27.1879 10.9995 27.5143 7.9314C30.5823 7.60501 33.6014 7.75188 36.5716 8.37202C39.5417 8.99216 42.1038 10.3793 44.258 12.5335C45.7594 14.0349 46.8528 15.7321 47.5382 17.6251C48.2236 19.5182 48.6643 21.5092 48.8601 23.5981C49.7087 21.5745 50.7368 19.6651 51.9445 17.8699C53.1521 16.0748 54.5066 14.4265 56.008 12.9251C56.7261 12.2071 57.64 11.8481 58.7497 11.8481C59.8594 11.8481 60.7733 12.2071 61.4913 12.9251C62.2094 13.6432 62.5684 14.5571 62.5684 15.6668C62.5684 16.7765 62.2094 17.6904 61.4913 18.4085C60.0552 19.8446 58.7823 21.4276 57.6726 23.1574C56.5629 24.8873 55.7469 26.7314 55.2247 28.6897C60.9691 30.5175 65.6038 33.8304 69.1288 38.6283C72.6538 43.4262 74.4163 48.8279 74.4163 54.8335C74.4163 62.471 71.7563 68.9498 66.4361 74.2699C61.116 79.5901 54.6372 82.2501 46.9997 82.2501ZM46.9997 74.4168C52.4177 74.4168 57.0361 72.5074 60.8549 68.6887C64.6736 64.8699 66.583 60.2515 66.583 54.8335C66.583 49.4154 64.6736 44.797 60.8549 40.9783C57.0361 37.1595 52.4177 35.2501 46.9997 35.2501C41.5816 35.2501 36.9632 37.1595 33.1445 40.9783C29.3257 44.797 27.4163 49.4154 27.4163 54.8335C27.4163 60.2515 29.3257 64.8699 33.1445 68.6887C36.9632 72.5074 41.5816 74.4168 46.9997 74.4168Z" fill="white"/>
</g>
</svg>
