<svg width="94" height="94" viewBox="0 0 94 94" fill="none" xmlns="http://www.w3.org/2000/svg">
<mask id="mask0_82_245" style="mask-type:alpha" maskUnits="userSpaceOnUse" x="0" y="0" width="94" height="94">
<rect width="94" height="94" fill="#D9D9D9"/>
</mask>
<g mask="url(#mask0_82_245)">
<path d="M47.0002 82.25C45.8252 82.25 44.6991 82.0378 43.622 81.6135C42.545 81.1892 41.5821 80.5528 40.7335 79.7042L15.9606 54.8333H27.0252L46.3147 74.1229C46.4453 74.2535 46.5595 74.3351 46.6575 74.3677C46.7554 74.4003 46.8696 74.4167 47.0002 74.4167C47.1307 74.4167 47.245 74.4003 47.3429 74.3677C47.4408 74.3351 47.555 74.2535 47.6856 74.1229L73.8293 47.8813C75.3307 46.3799 76.4731 44.601 77.2564 42.5448C78.0397 40.4885 78.4314 38.3833 78.4314 36.2292C78.3009 31.725 76.7995 27.8573 73.9272 24.626C71.055 21.3948 67.4647 19.7792 63.1564 19.7792C61.1328 19.7792 59.1908 20.1708 57.3304 20.9542C55.47 21.7375 53.8543 22.8799 52.4835 24.3813L49.8397 27.2208C49.5134 27.6125 49.0891 27.9226 48.5668 28.151C48.0446 28.3795 47.5224 28.4938 47.0002 28.4938C46.4779 28.4938 45.9557 28.3795 45.4335 28.151C44.9113 27.9226 44.4543 27.6125 44.0627 27.2208L41.4189 24.3813C40.0481 22.8799 38.4488 21.7049 36.621 20.8563C34.7932 20.0076 32.8349 19.5833 30.746 19.5833C27.221 19.5833 24.1693 20.7094 21.5908 22.9615C19.0123 25.2135 17.2661 28.0042 16.3522 31.3333H8.32308C9.4328 25.7847 12.0276 21.1337 16.1075 17.3802C20.1873 13.6267 25.0668 11.75 30.746 11.75C33.8793 11.75 36.8332 12.3701 39.6075 13.6104C42.3818 14.8507 44.846 16.5806 47.0002 18.8C49.0891 16.5806 51.5207 14.8507 54.295 13.6104C57.0693 12.3701 60.0231 11.75 63.1564 11.75C69.6842 11.75 75.1512 14.1653 79.5575 18.9958C83.9637 23.8264 86.1668 29.5708 86.1668 36.2292C86.1668 39.4278 85.612 42.4958 84.5023 45.4333C83.3925 48.3708 81.7279 50.9819 79.5085 53.2667L53.1689 79.7042C52.3203 80.5528 51.3738 81.1892 50.3293 81.6135C49.2849 82.0378 48.1752 82.25 47.0002 82.25ZM46.5106 47H7.8335V39.1667H62.1772C63.287 39.1667 64.2172 38.7913 64.9679 38.0406C65.7186 37.2899 66.0939 36.3597 66.0939 35.25C66.0939 34.1403 65.7186 33.2101 64.9679 32.4594C64.2172 31.7087 63.287 31.3333 62.1772 31.3333C61.2634 31.3333 60.4474 31.5781 59.7293 32.0677C59.0113 32.5573 58.5543 33.259 58.3585 34.1729L50.8189 32.1167C51.537 29.5708 52.9404 27.4983 55.0293 25.899C57.1182 24.2997 59.5009 23.5 62.1772 23.5C65.4411 23.5 68.2154 24.6424 70.5002 26.9271C72.7849 29.2118 73.9272 31.9861 73.9272 35.25C73.9272 38.5139 72.7849 41.2882 70.5002 43.5729C68.2154 45.8576 65.4411 47 62.1772 47H57.5752C57.771 47.6528 57.9342 48.2892 58.0647 48.9094C58.1953 49.5295 58.2606 50.1986 58.2606 50.9167C58.2606 54.1806 57.1182 56.9549 54.8335 59.2396C52.5488 61.5243 49.7745 62.6667 46.5106 62.6667C43.8342 62.6667 41.4516 61.867 39.3627 60.2677C37.2738 58.6684 35.8703 56.5958 35.1522 54.05L42.6918 51.9938C42.8877 52.9076 43.3446 53.6094 44.0627 54.099C44.7807 54.5885 45.5967 54.8333 46.5106 54.8333C47.6203 54.8333 48.5505 54.458 49.3012 53.7073C50.0519 52.9566 50.4272 52.0264 50.4272 50.9167C50.4272 49.8069 50.0519 48.8767 49.3012 48.126C48.5505 47.3753 47.6203 47 46.5106 47Z" fill="white"/>
</g>
</svg>
