<svg width="94" height="94" viewBox="0 0 94 94" fill="none" xmlns="http://www.w3.org/2000/svg">
<mask id="mask0_73_203" style="mask-type:alpha" maskUnits="userSpaceOnUse" x="0" y="0" width="94" height="94">
<rect width="94" height="94" fill="#68C37C"/>
</mask>
<g mask="url(#mask0_73_203)">
<path d="M52.8747 86.1667C45.8247 86.1667 39.8191 83.6862 34.858 78.725C29.8969 73.7639 27.4163 67.7584 27.4163 60.7084V58.4563C21.8025 57.5424 17.1351 54.915 13.4143 50.574C9.69342 46.233 7.83301 41.125 7.83301 35.25V15.6667C7.83301 14.557 8.20836 13.6268 8.95905 12.8761C9.70974 12.1254 10.64 11.75 11.7497 11.75H19.583C19.583 10.6403 19.9584 9.71011 20.709 8.95942C21.4597 8.20872 22.39 7.83337 23.4997 7.83337C24.6094 7.83337 25.5396 8.20872 26.2903 8.95942C27.041 9.71011 27.4163 10.6403 27.4163 11.75V19.5834C27.4163 20.6931 27.041 21.6233 26.2903 22.374C25.5396 23.1247 24.6094 23.5 23.4997 23.5C22.39 23.5 21.4597 23.1247 20.709 22.374C19.9584 21.6233 19.583 20.6931 19.583 19.5834H15.6663V35.25C15.6663 39.5584 17.2004 43.2466 20.2684 46.3146C23.3365 49.3827 27.0247 50.9167 31.333 50.9167C35.6413 50.9167 39.3295 49.3827 42.3976 46.3146C45.4656 43.2466 46.9997 39.5584 46.9997 35.25V19.5834H43.083C43.083 20.6931 42.7077 21.6233 41.957 22.374C41.2063 23.1247 40.2761 23.5 39.1663 23.5C38.0566 23.5 37.1264 23.1247 36.3757 22.374C35.625 21.6233 35.2497 20.6931 35.2497 19.5834V11.75C35.2497 10.6403 35.625 9.71011 36.3757 8.95942C37.1264 8.20872 38.0566 7.83337 39.1663 7.83337C40.2761 7.83337 41.2063 8.20872 41.957 8.95942C42.7077 9.71011 43.083 10.6403 43.083 11.75H50.9163C52.0261 11.75 52.9563 12.1254 53.707 12.8761C54.4577 13.6268 54.833 14.557 54.833 15.6667V35.25C54.833 41.125 52.9726 46.233 49.2518 50.574C45.5309 54.915 40.8636 57.5424 35.2497 58.4563V60.7084C35.2497 65.6042 36.9632 69.7657 40.3903 73.1927C43.8174 76.6198 47.9788 78.3334 52.8747 78.3334C57.7705 78.3334 61.932 76.6198 65.359 73.1927C68.7861 69.7657 70.4997 65.6042 70.4997 60.7084V54.148C68.2149 53.2993 66.3382 51.8796 64.8695 49.8886C63.4007 47.8976 62.6663 45.6292 62.6663 43.0834C62.6663 39.8195 63.8087 37.0452 66.0934 34.7605C68.3781 32.4757 71.1524 31.3334 74.4163 31.3334C77.6802 31.3334 80.4545 32.4757 82.7393 34.7605C85.024 37.0452 86.1663 39.8195 86.1663 43.0834C86.1663 45.6292 85.432 47.8976 83.9632 49.8886C82.4945 51.8796 80.6177 53.2993 78.333 54.148V60.7084C78.333 67.7584 75.8525 73.7639 70.8913 78.725C65.9302 83.6862 59.9247 86.1667 52.8747 86.1667ZM74.4163 47C75.5261 47 76.4563 46.6247 77.207 45.874C77.9577 45.1233 78.333 44.1931 78.333 43.0834C78.333 41.9737 77.9577 41.0434 77.207 40.2927C76.4563 39.5421 75.5261 39.1667 74.4163 39.1667C73.3066 39.1667 72.3764 39.5421 71.6257 40.2927C70.875 41.0434 70.4997 41.9737 70.4997 43.0834C70.4997 44.1931 70.875 45.1233 71.6257 45.874C72.3764 46.6247 73.3066 47 74.4163 47Z" fill="white"/>
</g>
</svg>
