<svg width="44" height="44" viewBox="0 0 44 44" fill="none" xmlns="http://www.w3.org/2000/svg">
<mask id="mask0_234_43" style="mask-type:alpha" maskUnits="userSpaceOnUse" x="0" y="0" width="44" height="44">
<rect width="44" height="44" fill="#D9D9D9"/>
</mask>
<g mask="url(#mask0_234_43)">
<path d="M20.1666 40.3333C19.6472 40.3333 19.2118 40.1576 18.8604 39.8062C18.509 39.4548 18.3333 39.0194 18.3333 38.5C18.3333 37.9805 18.509 37.5451 18.8604 37.1937C19.2118 36.8423 19.6472 36.6666 20.1666 36.6666H40.3333C40.8528 36.6666 41.2882 36.8423 41.6396 37.1937C41.9909 37.5451 42.1666 37.9805 42.1666 38.5C42.1666 39.0194 41.9909 39.4548 41.6396 39.8062C41.2882 40.1576 40.8528 40.3333 40.3333 40.3333H20.1666ZM20.1666 34.8333C20.1666 32.3583 20.9458 30.1965 22.5041 28.3479C24.0625 26.4993 26.0333 25.3611 28.4166 24.9333V23.7875C28.4166 23.268 28.5923 22.8326 28.9437 22.4812C29.2951 22.1298 29.7305 21.9541 30.25 21.9541C30.7694 21.9541 31.2048 22.1298 31.5562 22.4812C31.9076 22.8326 32.0833 23.268 32.0833 23.7875V24.9333C34.4361 25.3611 36.3993 26.4993 37.9729 28.3479C39.5465 30.1965 40.3333 32.3583 40.3333 34.8333H20.1666ZM24.9791 31.1208H35.4291C34.8486 30.2958 34.1076 29.6312 33.2062 29.127C32.3048 28.6229 31.3194 28.3708 30.25 28.3708C29.15 28.3708 28.1416 28.6229 27.225 29.127C26.3083 29.6312 25.5597 30.2958 24.9791 31.1208ZM1.83331 20.1666V7.33328C1.83331 6.32495 2.19234 5.46176 2.9104 4.7437C3.62845 4.02565 4.49165 3.66662 5.49998 3.66662H9.16665C9.89998 3.66662 10.6333 3.92634 11.3666 4.44578C12.1 4.96523 12.5889 5.59162 12.8333 6.32495L24.6125 3.02495C24.9486 2.93328 25.3 2.88745 25.6666 2.88745C26.0333 2.88745 26.3847 2.94856 26.7208 3.07078L39.05 6.92078C39.4472 7.04301 39.7604 7.26453 39.9896 7.58537C40.2187 7.9062 40.3333 8.26523 40.3333 8.66245V9.16662C40.3333 10.6944 39.7986 11.993 38.7291 13.0625C37.6597 14.1319 36.3611 14.6666 34.8333 14.6666H31.1666V15.7666C31.1666 16.5305 30.9451 17.2256 30.5021 17.852C30.059 18.4784 29.4861 18.9291 28.7833 19.2041L17.05 23.6041C16.8361 23.6652 16.6298 23.7187 16.4312 23.7645C16.2326 23.8104 16.0111 23.8333 15.7666 23.8333H5.49998C4.49165 23.8333 3.62845 23.4743 2.9104 22.7562C2.19234 22.0381 1.83331 21.175 1.83331 20.1666ZM5.49998 20.1666H9.16665V7.33328H5.49998V20.1666ZM12.8333 20.1666H15.7666L26.4 16.2708C26.7361 16.1486 27.0035 15.9423 27.2021 15.652C27.4007 15.3618 27.5 15.0333 27.5 14.6666H24.2458L20.625 15.8583C20.1361 16.0111 19.6701 15.9729 19.2271 15.7437C18.784 15.5145 18.4861 15.1402 18.3333 14.6208C18.1805 14.1319 18.2111 13.6736 18.425 13.2458C18.6389 12.818 18.9903 12.5277 19.4791 12.375L23.5125 11H34.8333C35.1083 11 35.4521 10.9006 35.8646 10.702C36.2771 10.5034 36.4833 10.2666 36.4833 9.99162L25.575 6.59995L12.8333 10.0833V20.1666Z" fill="white"/>
</g>
</svg>
