<svg width="44" height="44" viewBox="0 0 44 44" fill="none" xmlns="http://www.w3.org/2000/svg">
<mask id="mask0_234_46" style="mask-type:alpha" maskUnits="userSpaceOnUse" x="0" y="0" width="44" height="44">
<rect width="44" height="44" fill="#D9D9D9"/>
</mask>
<g mask="url(#mask0_234_46)">
<path d="M22 25.6667C23.0083 25.6667 23.8715 25.3077 24.5896 24.5897C25.3076 23.8716 25.6666 23.0084 25.6666 22.0001C25.6666 20.9917 25.3076 20.1286 24.5896 19.4105C23.8715 18.6924 23.0083 18.3334 22 18.3334C20.9916 18.3334 20.1285 18.6924 19.4104 19.4105C18.6923 20.1286 18.3333 20.9917 18.3333 22.0001C18.3333 23.0084 18.6923 23.8716 19.4104 24.5897C20.1285 25.3077 20.9916 25.6667 22 25.6667ZM14.6666 33.0001H29.3333V31.9459C29.3333 31.2126 29.1347 30.5404 28.7375 29.9292C28.3403 29.3181 27.7903 28.8598 27.0875 28.5542C26.293 28.2181 25.4757 27.9584 24.6354 27.7751C23.7951 27.5917 22.9166 27.5001 22 27.5001C21.0833 27.5001 20.2048 27.5917 19.3646 27.7751C18.5243 27.9584 17.7069 28.2181 16.9125 28.5542C16.2097 28.8598 15.6597 29.3181 15.2625 29.9292C14.8653 30.5404 14.6666 31.2126 14.6666 31.9459V33.0001ZM33 40.3334H11C9.99165 40.3334 9.12845 39.9744 8.4104 39.2563C7.69234 38.5383 7.33331 37.6751 7.33331 36.6667V7.33341C7.33331 6.32508 7.69234 5.46189 8.4104 4.74383C9.12845 4.02578 9.99165 3.66675 11 3.66675H24.1541C24.643 3.66675 25.109 3.75841 25.5521 3.94175C25.9951 4.12508 26.3847 4.3848 26.7208 4.72091L35.6125 13.6126C35.9486 13.9487 36.2083 14.3383 36.3916 14.7813C36.575 15.2244 36.6666 15.6904 36.6666 16.1792V36.6667C36.6666 37.6751 36.3076 38.5383 35.5896 39.2563C34.8715 39.9744 34.0083 40.3334 33 40.3334ZM33 36.6667V16.2251L24.1083 7.33341H11V36.6667H33Z" fill="white"/>
</g>
</svg>
