<svg width="40" height="38" viewBox="0 0 40 38" fill="none" xmlns="http://www.w3.org/2000/svg">
<path d="M5.33334 33.8333V20.3124L3.5 21.7333C3.07223 22.0388 2.61389 22.161 2.125 22.0999C1.63611 22.0388 1.23889 21.7944 0.933336 21.3666C0.62778 20.9388 0.505558 20.4805 0.566669 19.9916C0.62778 19.5027 0.856947 19.1055 1.25417 18.7999L5.33334 15.6833V11.8333C5.33334 11.3138 5.50903 10.8784 5.86042 10.527C6.21181 10.1756 6.64723 9.99992 7.16667 9.99992C7.68611 9.99992 8.12153 10.1756 8.47292 10.527C8.82431 10.8784 9 11.3138 9 11.8333V12.8874L17.7542 6.19575C18.4264 5.67631 19.175 5.41659 20 5.41659C20.825 5.41659 21.5736 5.67631 22.2458 6.19575L38.7458 18.7999C39.1431 19.1055 39.3722 19.5027 39.4333 19.9916C39.4944 20.4805 39.3722 20.9388 39.0667 21.3666C38.7611 21.7638 38.3639 21.993 37.875 22.0541C37.3861 22.1152 36.9431 21.993 36.5458 21.6874L34.6667 20.3124V33.8333C34.6667 34.8416 34.3076 35.7048 33.5896 36.4228C32.8715 37.1409 32.0083 37.4999 31 37.4999H9C7.99167 37.4999 7.12848 37.1409 6.41042 36.4228C5.69236 35.7048 5.33334 34.8416 5.33334 33.8333ZM9 33.8333H18.1667V28.3333C18.1667 27.8138 18.3424 27.3784 18.6938 27.027C19.0451 26.6756 19.4806 26.4999 20 26.4999C20.5194 26.4999 20.9549 26.6756 21.3063 27.027C21.6576 27.3784 21.8333 27.8138 21.8333 28.3333V33.8333H31V17.5166L20 9.12909L9 17.5166V33.8333ZM7.71667 8.16659C7.01389 8.16659 6.47153 7.87631 6.08959 7.29575C5.70764 6.7152 5.68473 6.11936 6.02084 5.50825C6.54028 4.62214 7.22014 3.927 8.06042 3.42284C8.9007 2.91867 9.825 2.66659 10.8333 2.66659C11.1694 2.66659 11.4903 2.58256 11.7958 2.4145C12.1014 2.24645 12.3306 2.00964 12.4833 1.70409C12.6361 1.42909 12.8424 1.2152 13.1021 1.06242C13.3618 0.909641 13.6597 0.833252 13.9958 0.833252C14.6986 0.833252 15.2333 1.12353 15.6 1.70409C15.9667 2.28464 15.9819 2.88047 15.6458 3.49159C15.1264 4.3777 14.4465 5.07284 13.6063 5.577C12.766 6.08117 11.8417 6.33325 10.8333 6.33325C10.4972 6.33325 10.1764 6.40964 9.87084 6.56242C9.56528 6.7152 9.33611 6.95964 9.18334 7.29575C9.03056 7.57075 8.83195 7.78464 8.5875 7.93742C8.34306 8.0902 8.05278 8.16659 7.71667 8.16659Z" fill="white"/>
</svg>
