<svg width="44" height="44" viewBox="0 0 44 44" fill="none" xmlns="http://www.w3.org/2000/svg">
<mask id="mask0_234_49" style="mask-type:alpha" maskUnits="userSpaceOnUse" x="0" y="0" width="44" height="44">
<rect width="44" height="44" fill="#D9D9D9"/>
</mask>
<g mask="url(#mask0_234_49)">
<path d="M9.16667 38.5C8.15833 38.5 7.29514 38.141 6.57708 37.4229C5.85903 36.7049 5.5 35.8417 5.5 34.8333V9.16667C5.5 8.15833 5.85903 7.29514 6.57708 6.57708C7.29514 5.85903 8.15833 5.5 9.16667 5.5H27.8208C28.3097 5.5 28.7757 5.59167 29.2188 5.775C29.6618 5.95833 30.0514 6.21806 30.3875 6.55417L37.4458 13.6125C37.7819 13.9486 38.0417 14.3382 38.225 14.7813C38.4083 15.2243 38.5 15.6903 38.5 16.1792V34.8333C38.5 35.8417 38.141 36.7049 37.4229 37.4229C36.7049 38.141 35.8417 38.5 34.8333 38.5H9.16667ZM9.16667 34.8333H34.8333V16.5H29.3333C28.8139 16.5 28.3785 16.3243 28.0271 15.9729C27.6757 15.6215 27.5 15.1861 27.5 14.6667V9.16667H9.16667V34.8333ZM29.3333 31.1667C29.8528 31.1667 30.2882 30.991 30.6396 30.6396C30.991 30.2882 31.1667 29.8528 31.1667 29.3333C31.1667 28.8139 30.991 28.3785 30.6396 28.0271C30.2882 27.6757 29.8528 27.5 29.3333 27.5H14.6667C14.1472 27.5 13.7118 27.6757 13.3604 28.0271C13.009 28.3785 12.8333 28.8139 12.8333 29.3333C12.8333 29.8528 13.009 30.2882 13.3604 30.6396C13.7118 30.991 14.1472 31.1667 14.6667 31.1667H29.3333ZM20.1667 16.5C20.6861 16.5 21.1215 16.3243 21.4729 15.9729C21.8243 15.6215 22 15.1861 22 14.6667C22 14.1472 21.8243 13.7118 21.4729 13.3604C21.1215 13.009 20.6861 12.8333 20.1667 12.8333H14.6667C14.1472 12.8333 13.7118 13.009 13.3604 13.3604C13.009 13.7118 12.8333 14.1472 12.8333 14.6667C12.8333 15.1861 13.009 15.6215 13.3604 15.9729C13.7118 16.3243 14.1472 16.5 14.6667 16.5H20.1667ZM29.3333 23.8333C29.8528 23.8333 30.2882 23.6576 30.6396 23.3063C30.991 22.9549 31.1667 22.5194 31.1667 22C31.1667 21.4806 30.991 21.0451 30.6396 20.6938C30.2882 20.3424 29.8528 20.1667 29.3333 20.1667H14.6667C14.1472 20.1667 13.7118 20.3424 13.3604 20.6938C13.009 21.0451 12.8333 21.4806 12.8333 22C12.8333 22.5194 13.009 22.9549 13.3604 23.3063C13.7118 23.6576 14.1472 23.8333 14.6667 23.8333H29.3333Z" fill="white"/>
</g>
</svg>
